<svg width="128" height="71" viewBox="0 0 128 71" fill="none" xmlns="http://www.w3.org/2000/svg">
<path d="M111.135 14.2367C111.35 13.7565 111.655 13.3222 112.034 12.9579C112.815 12.1968 113.864 11.7741 114.955 11.7814C116.041 11.7733 117.087 12.1964 117.862 12.9579C118.236 13.3249 118.538 13.7586 118.753 14.2367C118.974 14.7478 119.088 15.2994 119.085 15.8565C119.088 16.422 118.975 16.9821 118.753 17.502C118.539 17.9885 118.237 18.4309 117.862 18.8064C117.487 19.1751 117.042 19.465 116.553 19.6589C115.526 20.0748 114.378 20.0748 113.352 19.6589C112.86 19.4651 112.413 19.1753 112.034 18.8064C111.653 18.4338 111.348 17.9909 111.135 17.502C110.912 16.9824 110.8 16.4219 110.807 15.8565C110.801 15.2995 110.912 14.7474 111.135 14.2367ZM111.813 17.259C111.978 17.6734 112.221 18.0525 112.529 18.3758C112.834 18.6928 113.201 18.9438 113.608 19.1133C114.031 19.2945 114.487 19.3879 114.948 19.3879C115.409 19.3879 115.865 19.2945 116.289 19.1133C116.692 18.9426 117.056 18.6917 117.359 18.3758C117.668 18.0536 117.911 17.6743 118.075 17.259C118.25 16.8122 118.338 16.3363 118.335 15.8565C118.338 15.3851 118.249 14.9176 118.075 14.4797C117.865 13.9602 117.529 13.5012 117.097 13.1439C116.665 12.7866 116.151 12.5422 115.602 12.4327C115.052 12.3232 114.484 12.352 113.949 12.5166C113.413 12.6812 112.927 12.9764 112.533 13.3756C112.225 13.6937 111.982 14.0686 111.817 14.4797C111.643 14.9176 111.555 15.3851 111.557 15.8565C111.554 16.3363 111.642 16.8122 111.817 17.259M115.227 13.4651C115.681 13.4262 116.134 13.5485 116.506 13.8104C116.651 13.939 116.764 14.0986 116.838 14.2773C116.912 14.4559 116.944 14.649 116.932 14.842C116.947 15.0181 116.922 15.1951 116.859 15.3603C116.796 15.5255 116.698 15.6746 116.57 15.7969C116.312 16.0039 115.997 16.1273 115.666 16.1507L117.039 18.2821H116.238L114.929 16.2104H114.136V18.2821H113.348V13.4651H115.227ZM114.895 15.5965C115.054 15.6054 115.213 15.6054 115.372 15.5965C115.51 15.5914 115.646 15.5611 115.773 15.507C115.888 15.4572 115.987 15.376 116.058 15.2725C116.129 15.1418 116.164 14.9949 116.161 14.8463C116.169 14.7119 116.136 14.5783 116.067 14.4626C116.007 14.3687 115.923 14.2922 115.824 14.241C115.717 14.1859 115.602 14.1498 115.483 14.1344C115.357 14.1162 115.231 14.1062 115.104 14.1046H114.115V15.6349L114.895 15.5965Z" fill="#413E3A"/>
<path d="M19.9649 21.6519V23.8966C18.3888 22.0817 16.0485 20.9832 12.8485 20.9832C6.5918 20.9832 1.43359 26.4757 1.43359 33.5922C1.43359 40.7086 6.5918 46.2011 12.8485 46.2011C16.0485 46.2011 18.3888 45.1026 19.9649 43.2877V45.5325H27.1291V21.6519H19.9649ZM14.2814 39.419C10.9858 39.419 8.59777 37.1743 8.59777 33.5922C8.59777 30.0101 10.9858 27.7653 14.2814 27.7653C17.5769 27.7653 19.9649 30.0101 19.9649 33.5922C19.9649 37.1743 17.5769 39.419 14.2814 39.419ZM36.4448 18.834H50.7731V12.625H36.4448V18.834ZM49.5791 21.6519L39.3582 33.5922V21.6519H32.3851V45.5325H37.6388L47.8597 33.5922V45.5325H54.8328V21.6519H49.5791Z" fill="#00A053"/>
<path d="M73.7013 12.0996H60.3281V45.5324H73.7013C82.9192 45.5324 89.9401 38.2727 89.9401 28.816C89.9401 19.3593 82.9192 12.0996 73.7013 12.0996ZM73.7013 38.1772H67.9699V19.4548H73.7013C78.955 19.4548 82.5848 23.0847 82.5848 28.816C82.5848 34.5474 78.955 38.1772 73.7013 38.1772ZM111.335 21.6518V23.8966C109.759 22.0817 107.419 20.9832 104.219 20.9832C97.962 20.9832 92.8038 26.4757 92.8038 33.5921C92.8038 40.7086 97.962 46.2011 104.219 46.2011C107.419 46.2011 109.759 45.1026 111.335 43.2877V45.5324H118.499V21.6518H111.335ZM105.652 39.419C102.356 39.419 99.968 37.1742 99.968 33.5921C99.968 30.0101 102.356 27.7653 105.652 27.7653C108.947 27.7653 111.335 30.0101 111.335 33.5921C111.335 37.1742 108.947 39.419 105.652 39.419Z" fill="#E73326"/>
<path d="M62.6653 55.8806C62.4487 55.6641 62.1908 55.524 61.8915 55.4603C61.5922 55.403 61.3025 55.4316 61.0223 55.5463C60.7421 55.6673 60.5192 55.8519 60.3536 56.1003C60.1817 56.355 60.0957 56.6352 60.0957 56.9409V68.2221C60.0957 68.6424 60.2422 68.999 60.5351 69.2919C60.828 69.5849 61.1847 69.7313 61.605 69.7313C62.0189 69.7313 62.3723 69.5849 62.6653 69.2919C62.9582 68.999 63.1047 68.6424 63.1047 68.2221V60.5707L66.1805 63.6466C66.4734 63.9395 66.8268 64.086 67.2408 64.086C67.6611 64.086 68.0177 63.9395 68.3106 63.6466L71.3864 60.5707V68.2221C71.3864 68.6424 71.5329 68.999 71.8259 69.2919C72.1188 69.5849 72.4722 69.7313 72.8862 69.7313C73.3001 69.7313 73.6535 69.5849 73.9464 69.2919C74.2458 68.999 74.3954 68.6424 74.3954 68.2221V56.9409C74.3954 56.6352 74.3094 56.355 74.1375 56.1003C73.9719 55.8519 73.7459 55.6673 73.4593 55.5463C73.1791 55.4316 72.8893 55.403 72.59 55.4603C72.2971 55.524 72.0424 55.6641 71.8259 55.8806L67.2408 60.4561L62.6653 55.8806ZM79.6447 60.7045C79.6447 60.0804 79.8644 59.5487 80.3038 59.1093C80.7495 58.6635 81.2813 58.4406 81.899 58.4406H86.0447V62.9588H81.899C81.2813 62.9588 80.7495 62.7391 80.3038 62.2997C79.8644 61.8539 79.6447 61.3222 79.6447 60.7045ZM86.0447 65.9678V68.2221C86.0447 68.6424 86.1911 68.999 86.4841 69.2919C86.777 69.5849 87.1305 69.7313 87.5444 69.7313C87.9583 69.7313 88.3149 69.5849 88.6142 69.2919C88.9072 68.999 89.0536 68.6424 89.0536 68.2221V56.9409C89.0536 56.527 88.9072 56.1735 88.6142 55.8806C88.3149 55.5813 87.9583 55.4316 87.5444 55.4316H81.899C80.4471 55.4316 79.2085 55.9475 78.1832 56.9791C77.1515 58.0107 76.6357 59.2525 76.6357 60.7045C76.6357 61.6215 76.8618 62.478 77.3139 63.274C77.747 64.0446 78.3392 64.6687 79.0906 65.1463L77.0751 67.1618C76.7822 67.4547 76.6357 67.8082 76.6357 68.2221C76.6357 68.6424 76.7822 68.999 77.0751 69.2919C77.3681 69.5849 77.7247 69.7313 78.145 69.7313C78.5589 69.7313 78.9123 69.5849 79.2053 69.2919L82.5295 65.9678H86.0447ZM98.4451 69.7313C100.419 69.7313 102.104 69.034 103.498 67.6394C103.791 67.3465 103.938 66.9899 103.938 66.5696C103.938 66.1556 103.791 65.8022 103.498 65.5093C103.205 65.2163 102.852 65.0699 102.438 65.0699C102.018 65.0699 101.661 65.2163 101.368 65.5093C100.559 66.318 99.585 66.7224 98.4451 66.7224C97.3052 66.7224 96.3308 66.318 95.5221 65.5093C94.7133 64.7005 94.309 63.7262 94.309 62.5863C94.309 61.44 94.7133 60.4625 95.5221 59.6537C96.3308 58.845 97.3052 58.4406 98.4451 58.4406C99.585 58.4406 100.559 58.845 101.368 59.6537C101.661 59.953 102.018 60.1027 102.438 60.1027C102.852 60.1027 103.205 59.953 103.498 59.6537C103.791 59.3608 103.938 59.0074 103.938 58.5934C103.938 58.1795 103.791 57.8261 103.498 57.5331C102.104 56.1321 100.419 55.4316 98.4451 55.4316C96.4709 55.4316 94.7866 56.1321 93.3919 57.5331C91.9973 58.9214 91.3 60.6058 91.3 62.5863C91.3 64.5604 91.9973 66.2448 93.3919 67.6394C94.7866 69.034 96.4709 69.7313 98.4451 69.7313ZM116.509 62.5863C116.509 63.7262 116.104 64.7005 115.296 65.5093C114.48 66.318 113.503 66.7224 112.363 66.7224C111.223 66.7224 110.249 66.318 109.44 65.5093C108.631 64.7005 108.227 63.7262 108.227 62.5863C108.227 61.4464 108.631 60.472 109.44 59.6633C110.249 58.8482 111.223 58.4406 112.363 58.4406C113.503 58.4406 114.48 58.8482 115.296 59.6633C116.104 60.472 116.509 61.4464 116.509 62.5863ZM105.218 62.5863C105.218 64.554 105.915 66.2384 107.31 67.6394C108.711 69.034 110.395 69.7313 112.363 69.7313C114.337 69.7313 116.022 69.034 117.416 67.6394C118.817 66.2384 119.518 64.554 119.518 62.5863C119.518 60.6121 118.817 58.9278 117.416 57.5331C116.022 56.1321 114.337 55.4316 112.363 55.4316C110.395 55.4316 108.711 56.1321 107.31 57.5331C105.915 58.9278 105.218 60.6121 105.218 62.5863Z" fill="#413E3A"/>
</svg>
