<svg width="65" height="37" viewBox="0 0 65 37" fill="none" xmlns="http://www.w3.org/2000/svg">
<path d="M56.4363 7.22931C56.5454 6.98546 56.7003 6.76492 56.8928 6.57992C57.2894 6.19343 57.8221 5.97877 58.3761 5.98248C58.9276 5.97837 59.4588 6.19322 59.8523 6.57992C60.0422 6.76629 60.1956 6.98653 60.3048 7.22931C60.417 7.48886 60.4749 7.76896 60.4734 8.05187C60.4749 8.33903 60.4175 8.62346 60.3048 8.88747C60.1961 9.13452 60.0427 9.35918 59.8523 9.54986C59.6619 9.73709 59.4359 9.88431 59.1876 9.98277C58.6661 10.194 58.0831 10.194 57.5621 9.98277C57.3122 9.88436 57.0852 9.73719 56.8928 9.54986C56.6993 9.36065 56.5444 9.13574 56.4363 8.88747C56.323 8.62361 56.2661 8.33898 56.2697 8.05187C56.2666 7.76901 56.323 7.48865 56.4363 7.22931ZM56.7805 8.76407C56.8643 8.97451 56.9877 9.16702 57.1441 9.3312C57.299 9.49217 57.4854 9.61964 57.6921 9.70571C57.9069 9.79773 58.1384 9.84516 58.3725 9.84516C58.6066 9.84516 58.8382 9.79773 59.0535 9.70571C59.2582 9.61903 59.443 9.49162 59.5969 9.3312C59.7538 9.16758 59.8772 8.97497 59.9605 8.76407C60.0493 8.53718 60.094 8.29551 60.0925 8.05187C60.094 7.81248 60.0488 7.57508 59.9605 7.35271C59.8538 7.0889 59.6832 6.85582 59.4638 6.67437C59.2445 6.49293 58.9834 6.36882 58.7046 6.31322C58.4254 6.25761 58.1369 6.27224 57.8652 6.35582C57.593 6.43941 57.3462 6.58932 57.1462 6.79203C56.9898 6.95357 56.8664 7.14395 56.7826 7.35271C56.6942 7.57508 56.6495 7.81248 56.6505 8.05187C56.649 8.29551 56.6937 8.53718 56.7826 8.76407M58.5142 6.83748C58.7448 6.81773 58.9748 6.87984 59.1637 7.01283C59.2373 7.07814 59.2947 7.15918 59.3323 7.24993C59.3699 7.34062 59.3861 7.43868 59.38 7.53669C59.3877 7.62612 59.375 7.716 59.343 7.79989C59.311 7.88378 59.2612 7.9595 59.1962 8.0216C59.0652 8.12672 58.9052 8.18938 58.7371 8.20126L59.4344 9.28362H59.0276L58.3629 8.23158H57.9602V9.28362H57.56V6.83748H58.5142ZM58.3456 7.91984C58.4264 7.92436 58.5071 7.92436 58.5879 7.91984C58.6579 7.91725 58.727 7.90186 58.7915 7.87439C58.8499 7.8491 58.9002 7.80786 58.9362 7.7553C58.9723 7.68893 58.99 7.61434 58.9885 7.53887C58.9926 7.47062 58.9758 7.40278 58.9408 7.34403C58.9103 7.29634 58.8677 7.2575 58.8174 7.2315C58.763 7.20352 58.7047 7.18518 58.6442 7.17736C58.5802 7.16812 58.5162 7.16304 58.4518 7.16223H57.9495V7.93934L58.3456 7.91984Z" fill="#413E3A"/>
<path d="M10.1389 10.9951V12.135C9.33858 11.2134 8.15015 10.6555 6.52515 10.6555C3.34792 10.6555 0.728516 13.4447 0.728516 17.0585C0.728516 20.6723 3.34792 23.4615 6.52515 23.4615C8.15015 23.4615 9.33858 22.9037 10.1389 21.982V23.122H13.777V10.9951H10.1389ZM7.25279 20.0175C5.57925 20.0175 4.36658 18.8776 4.36658 17.0585C4.36658 15.2395 5.57925 14.0996 7.25279 14.0996C8.92629 14.0996 10.1389 15.2395 10.1389 17.0585C10.1389 18.8776 8.92629 20.0175 7.25279 20.0175ZM18.5076 9.56414H25.7837V6.41113H18.5076V9.56414ZM25.1774 10.9951L19.9871 17.0585V10.9951H16.4461V23.122H19.114L24.3043 17.0585V23.122H27.8453V10.9951H25.1774Z" fill="#00A053"/>
<path d="M37.4258 6.14453H30.6348V23.1221H37.4258C42.1068 23.1221 45.6721 19.4356 45.6721 14.6333C45.6721 9.8311 42.1068 6.14453 37.4258 6.14453ZM37.4258 19.3871H34.5154V9.87959H37.4258C40.0937 9.87959 41.937 11.7229 41.937 14.6333C41.937 17.5438 40.0937 19.3871 37.4258 19.3871ZM56.5367 10.9953V12.1352C55.7364 11.2136 54.5481 10.6557 52.9231 10.6557C49.7457 10.6557 47.1263 13.4449 47.1263 17.0587C47.1263 20.6725 49.7457 23.4617 52.9231 23.4617C54.5481 23.4617 55.7364 22.9039 56.5367 21.9822V23.1221H60.1747V10.9953H56.5367ZM53.6508 20.0177C51.9771 20.0177 50.7644 18.8777 50.7644 17.0587C50.7644 15.2397 51.9771 14.0998 53.6508 14.0998C55.3241 14.0998 56.5367 15.2397 56.5367 17.0587C56.5367 18.8777 55.3241 20.0177 53.6508 20.0177Z" fill="#E73326"/>
<path d="M31.8225 28.3764C31.7125 28.2665 31.5815 28.1954 31.4295 28.163C31.2775 28.1339 31.1304 28.1484 30.9881 28.2067C30.8458 28.2681 30.7326 28.3619 30.6485 28.488C30.5613 28.6174 30.5176 28.7596 30.5176 28.9149V34.6436C30.5176 34.857 30.592 35.0381 30.7407 35.1869C30.8894 35.3357 31.0706 35.41 31.284 35.41C31.4942 35.41 31.6737 35.3357 31.8225 35.1869C31.9712 35.0381 32.0456 34.857 32.0456 34.6436V30.7581L33.6075 32.3201C33.7563 32.4689 33.9357 32.5432 34.1459 32.5432C34.3594 32.5432 34.5405 32.4689 34.6892 32.3201L36.2511 30.7581V34.6436C36.2511 34.857 36.3255 35.0381 36.4743 35.1869C36.6231 35.3357 36.8025 35.41 37.0128 35.41C37.2229 35.41 37.4024 35.3357 37.5511 35.1869C37.7032 35.0381 37.7791 34.857 37.7791 34.6436V28.9149C37.7791 28.7596 37.7355 28.6174 37.6482 28.488C37.5641 28.3619 37.4493 28.2681 37.3038 28.2067C37.1615 28.1484 37.0143 28.1339 36.8623 28.163C36.7136 28.1954 36.5843 28.2665 36.4743 28.3764L34.1459 30.6999L31.8225 28.3764ZM40.4448 30.8261C40.4448 30.5092 40.5564 30.2392 40.7795 30.016C41.0058 29.7896 41.2759 29.6764 41.5896 29.6764H43.6948V31.9708H41.5896C41.2759 31.9708 41.0058 31.8593 40.7795 31.6361C40.5564 31.4098 40.4448 31.1398 40.4448 30.8261ZM43.6948 33.4989V34.6436C43.6948 34.857 43.7691 35.0381 43.9179 35.1869C44.0667 35.3357 44.2462 35.41 44.4564 35.41C44.6666 35.41 44.8476 35.3357 44.9996 35.1869C45.1484 35.0381 45.2228 34.857 45.2228 34.6436V28.9149C45.2228 28.7047 45.1484 28.5252 44.9996 28.3764C44.8476 28.2245 44.6666 28.1484 44.4564 28.1484H41.5896C40.8523 28.1484 40.2233 28.4104 39.7026 28.9343C39.1787 29.4581 38.9168 30.0887 38.9168 30.8261C38.9168 31.2917 39.0316 31.7267 39.2612 32.1309C39.4811 32.5222 39.7819 32.8392 40.1634 33.0817L39.1399 34.1052C38.9912 34.2539 38.9168 34.4334 38.9168 34.6436C38.9168 34.857 38.9912 35.0381 39.1399 35.1869C39.2887 35.3357 39.4698 35.41 39.6832 35.41C39.8934 35.41 40.0729 35.3357 40.2217 35.1869L41.9097 33.4989H43.6948ZM49.9919 35.41C50.9943 35.41 51.8499 35.0559 52.5578 34.3477C52.7066 34.199 52.7812 34.0179 52.7812 33.8045C52.7812 33.5942 52.7066 33.4148 52.5578 33.266C52.409 33.1172 52.2298 33.0429 52.0195 33.0429C51.8062 33.0429 51.625 33.1172 51.4762 33.266C51.0653 33.6767 50.5707 33.882 49.9919 33.882C49.413 33.882 48.9182 33.6767 48.5075 33.266C48.0968 32.8553 47.8915 32.3605 47.8915 31.7817C47.8915 31.1996 48.0968 30.7032 48.5075 30.2925C48.9182 29.8818 49.413 29.6764 49.9919 29.6764C50.5707 29.6764 51.0653 29.8818 51.4762 30.2925C51.625 30.4445 51.8062 30.5205 52.0195 30.5205C52.2298 30.5205 52.409 30.4445 52.5578 30.2925C52.7066 30.1437 52.7812 29.9643 52.7812 29.754C52.7812 29.5439 52.7066 29.3644 52.5578 29.2156C51.8499 28.5042 50.9943 28.1484 49.9919 28.1484C48.9894 28.1484 48.1341 28.5042 47.4258 29.2156C46.7176 29.9206 46.3635 30.776 46.3635 31.7817C46.3635 32.7842 46.7176 33.6395 47.4258 34.3477C48.1341 35.0559 48.9894 35.41 49.9919 35.41ZM59.165 31.7817C59.165 32.3605 58.9593 32.8553 58.549 33.266C58.1346 33.6767 57.6385 33.882 57.0596 33.882C56.4807 33.882 55.9861 33.6767 55.5752 33.266C55.1644 32.8553 54.9593 32.3605 54.9593 31.7817C54.9593 31.2028 55.1644 30.708 55.5752 30.2973C55.9861 29.8834 56.4807 29.6764 57.0596 29.6764C57.6385 29.6764 58.1346 29.8834 58.549 30.2973C58.9593 30.708 59.165 31.2028 59.165 31.7817ZM53.4312 31.7817C53.4312 32.7809 53.7852 33.6363 54.4936 34.3477C55.205 35.0559 56.0602 35.41 57.0596 35.41C58.062 35.41 58.9177 35.0559 59.6255 34.3477C60.337 33.6363 60.693 32.7809 60.693 31.7817C60.693 30.7792 60.337 29.9239 59.6255 29.2156C58.9177 28.5042 58.062 28.1484 57.0596 28.1484C56.0602 28.1484 55.205 28.5042 54.4936 29.2156C53.7852 29.9239 53.4312 30.7792 53.4312 31.7817Z" fill="#413E3A"/>
</svg>
