<svg width="180" height="54" viewBox="0 0 180 54" fill="none" xmlns="http://www.w3.org/2000/svg">
<rect width="180" height="54" rx="27" fill="#75B82B"/>
<g filter="url(#filter0_b_134_23)">
<path d="M47.5659 21V8H38.9259V15.98C38.9259 18.7 38.2659 20.12 37.4859 21H36.3659V24.68H37.4459V22H47.9659V24.68H49.0459V21H47.5659ZM39.9859 16V9H46.5059V21H38.7459C39.4259 20.04 39.9859 18.56 39.9859 16ZM57.7791 22.22C61.8191 22.22 64.9991 19 64.9991 15C64.9991 11 61.8191 7.78 57.7791 7.78C53.7391 7.78 50.5591 11 50.5591 15C50.5591 19 53.7391 22.22 57.7791 22.22ZM57.7791 21.2C54.3191 21.2 51.6191 18.44 51.6191 15C51.6191 11.56 54.3191 8.8 57.7791 8.8C61.2391 8.8 63.9391 11.56 63.9391 15C63.9391 18.44 61.2391 21.2 57.7791 21.2ZM72.7473 13.74H68.7473V9H75.7473V8H67.6873V22H72.7473C75.0273 22 76.8873 20.14 76.8873 17.86C76.8873 15.6 75.0273 13.74 72.7473 13.74ZM72.7473 21H68.7473V14.74H72.7473C74.4273 14.74 75.8073 16.14 75.8073 17.86C75.8073 19.6 74.4273 21 72.7473 21ZM88.5135 22H89.6335L84.2135 8H83.0935L77.6535 22H78.7735L80.1335 18.44H87.1535L88.5135 22ZM80.5335 17.44L83.6535 9.3L86.7735 17.44H80.5335ZM99.1316 14.74C100.212 14.16 100.932 13.04 100.932 11.68C100.932 9.66 99.2916 8 97.2516 8H91.6716V22H97.7116C99.8316 22 101.532 20.3 101.532 18.18C101.532 16.58 100.532 15.28 99.1316 14.74ZM97.2516 9C98.6916 9 99.8716 10.2 99.8716 11.68C99.8716 13.16 98.6916 14.36 97.2516 14.36H92.7316V9H97.2516ZM97.7116 21H92.7316V15.36H97.7116C99.2316 15.36 100.472 16.62 100.472 18.18C100.472 19.74 99.2316 21 97.7116 21ZM113.333 22H114.393V8H113.453L105.193 20.04V8H104.133V22H105.053L113.333 9.96V22ZM126.463 8H116.583V9H120.983V22H122.063V9H126.463V8ZM133.424 13.34H129.724V8H128.664V22H133.424C135.944 22 137.784 20.14 137.784 17.66C137.784 15.2 135.944 13.34 133.424 13.34ZM133.424 21H129.724V14.34H133.424C135.344 14.34 136.724 15.74 136.724 17.66C136.724 19.6 135.344 21 133.424 21ZM40.2059 37.74C41.2859 37.16 42.0059 36.04 42.0059 34.68C42.0059 32.66 40.3659 31 38.3259 31H32.7459V45H38.7859C40.9059 45 42.6059 43.3 42.6059 41.18C42.6059 39.58 41.6059 38.28 40.2059 37.74ZM38.3259 32C39.7659 32 40.9459 33.2 40.9459 34.68C40.9459 36.16 39.7659 37.36 38.3259 37.36H33.8059V32H38.3259ZM38.7859 44H33.8059V38.36H38.7859C40.3059 38.36 41.5459 39.62 41.5459 41.18C41.5459 42.74 40.3059 44 38.7859 44ZM60.0388 45L52.7588 37.8L59.8388 31H58.4188L51.5988 37.52V31H50.5388V45H51.5988V38.1L58.6188 45H60.0388ZM67.2127 45.22C71.2527 45.22 74.4327 42 74.4327 38C74.4327 34 71.2527 30.78 67.2127 30.78C63.1727 30.78 59.9927 34 59.9927 38C59.9927 42 63.1727 45.22 67.2127 45.22ZM67.2127 44.2C63.7527 44.2 61.0527 41.44 61.0527 38C61.0527 34.56 63.7527 31.8 67.2127 31.8C70.6727 31.8 73.3727 34.56 73.3727 38C73.3727 41.44 70.6727 44.2 67.2127 44.2ZM86.3209 31V37.3H78.1809V31H77.1209V45H78.1809V38.3H86.3209V45H87.3809V31H86.3209ZM99.4513 31H89.5713V32H93.9713V45H95.0513V32H99.4513V31ZM110.076 45H111.196L105.776 31H104.656L99.216 45H100.336L101.696 41.44H108.716L110.076 45ZM102.096 40.44L105.216 32.3L108.336 40.44H102.096ZM122.734 45L115.454 37.8L122.534 31H121.114L114.294 37.52V31H113.234V45H114.294V38.1L121.314 45H122.734ZM133.279 31H123.399V32H127.799V45H128.879V32H133.279V31ZM135.48 45H140.24C142.76 45 144.6 43.14 144.6 40.66C144.6 38.2 142.76 36.34 140.24 36.34H136.54V31H135.48V45ZM146.2 45H147.28V31H146.2V45ZM136.54 44V37.34H140.24C142.16 37.34 143.54 38.74 143.54 40.66C143.54 42.6 142.16 44 140.24 44H136.54Z" fill="white"/>
</g>
<defs>
<filter id="filter0_b_134_23" x="28.7461" y="3.78027" width="122.533" height="45.4395" filterUnits="userSpaceOnUse" color-interpolation-filters="sRGB">
<feFlood flood-opacity="0" result="BackgroundImageFix"/>
<feGaussianBlur in="BackgroundImage" stdDeviation="2"/>
<feComposite in2="SourceAlpha" operator="in" result="effect1_backgroundBlur_134_23"/>
<feBlend mode="normal" in="SourceGraphic" in2="effect1_backgroundBlur_134_23" result="shape"/>
</filter>
</defs>
</svg>
