<svg width="180" height="80" viewBox="0 0 180 80" fill="none" xmlns="http://www.w3.org/2000/svg">
<g filter="url(#filter0_d_134_108)">
<rect width="180" height="76" rx="20" fill="#75B82B" shape-rendering="crispEdges"/>
<path d="M42.56 32V19H33.92V26.98C33.92 29.7 33.26 31.12 32.48 32H31.36V35.68H32.44V33H42.96V35.68H44.04V32H42.56ZM34.98 27V20H41.5V32H33.74C34.42 31.04 34.98 29.56 34.98 27ZM52.7733 33.22C56.8133 33.22 59.9933 30 59.9933 26C59.9933 22 56.8133 18.78 52.7733 18.78C48.7333 18.78 45.5533 22 45.5533 26C45.5533 30 48.7333 33.22 52.7733 33.22ZM52.7733 32.2C49.3133 32.2 46.6133 29.44 46.6133 26C46.6133 22.56 49.3133 19.8 52.7733 19.8C56.2333 19.8 58.9333 22.56 58.9333 26C58.9333 29.44 56.2333 32.2 52.7733 32.2ZM67.7414 24.74H63.7414V20H70.7414V19H62.6814V33H67.7414C70.0214 33 71.8814 31.14 71.8814 28.86C71.8814 26.6 70.0214 24.74 67.7414 24.74ZM67.7414 32H63.7414V25.74H67.7414C69.4214 25.74 70.8014 27.14 70.8014 28.86C70.8014 30.6 69.4214 32 67.7414 32ZM83.5077 33H84.6277L79.2077 19H78.0877L72.6477 33H73.7677L75.1277 29.44H82.1477L83.5077 33ZM75.5277 28.44L78.6477 20.3L81.7677 28.44H75.5277ZM94.1258 25.74C95.2058 25.16 95.9258 24.04 95.9258 22.68C95.9258 20.66 94.2858 19 92.2458 19H86.6658V33H92.7058C94.8258 33 96.5258 31.3 96.5258 29.18C96.5258 27.58 95.5258 26.28 94.1258 25.74ZM92.2458 20C93.6858 20 94.8658 21.2 94.8658 22.68C94.8658 24.16 93.6858 25.36 92.2458 25.36H87.7258V20H92.2458ZM92.7058 32H87.7258V26.36H92.7058C94.2258 26.36 95.4658 27.62 95.4658 29.18C95.4658 30.74 94.2258 32 92.7058 32ZM108.327 33H109.387V19H108.447L100.187 31.04V19H99.1267V33H100.047L108.327 20.96V33ZM121.457 19H111.577V20H115.977V33H117.057V20H121.457V19ZM128.418 24.34H124.718V19H123.658V33H128.418C130.938 33 132.778 31.14 132.778 28.66C132.778 26.2 130.938 24.34 128.418 24.34ZM128.418 32H124.718V25.34H128.418C130.338 25.34 131.718 26.74 131.718 28.66C131.718 30.6 130.338 32 128.418 32ZM40.2 48.74C41.28 48.16 42 47.04 42 45.68C42 43.66 40.36 42 38.32 42H32.74V56H38.78C40.9 56 42.6 54.3 42.6 52.18C42.6 50.58 41.6 49.28 40.2 48.74ZM38.32 43C39.76 43 40.94 44.2 40.94 45.68C40.94 47.16 39.76 48.36 38.32 48.36H33.8V43H38.32ZM38.78 55H33.8V49.36H38.78C40.3 49.36 41.54 50.62 41.54 52.18C41.54 53.74 40.3 55 38.78 55ZM60.033 56L52.753 48.8L59.833 42H58.413L51.593 48.52V42H50.533V56H51.593V49.1L58.613 56H60.033ZM67.2069 56.22C71.2469 56.22 74.4269 53 74.4269 49C74.4269 45 71.2469 41.78 67.2069 41.78C63.1669 41.78 59.9869 45 59.9869 49C59.9869 53 63.1669 56.22 67.2069 56.22ZM67.2069 55.2C63.7469 55.2 61.0469 52.44 61.0469 49C61.0469 45.56 63.7469 42.8 67.2069 42.8C70.6669 42.8 73.3669 45.56 73.3669 49C73.3669 52.44 70.6669 55.2 67.2069 55.2ZM86.315 42V48.3H78.175V42H77.115V56H78.175V49.3H86.315V56H87.375V42H86.315ZM99.4455 42H89.5655V43H93.9655V56H95.0455V43H99.4455V42ZM110.07 56H111.19L105.77 42H104.65L99.2102 56H100.33L101.69 52.44H108.71L110.07 56ZM102.09 51.44L105.21 43.3L108.33 51.44H102.09ZM122.728 56L115.448 48.8L122.528 42H121.108L114.288 48.52V42H113.228V56H114.288V49.1L121.308 56H122.728ZM133.274 42H123.394V43H127.794V56H128.874V43H133.274V42ZM135.474 56H140.234C142.754 56 144.594 54.14 144.594 51.66C144.594 49.2 142.754 47.34 140.234 47.34H136.534V42H135.474V56ZM146.194 56H147.274V42H146.194V56ZM136.534 55V48.34H140.234C142.154 48.34 143.534 49.74 143.534 51.66C143.534 53.6 142.154 55 140.234 55H136.534Z" fill="white"/>
</g>
<defs>
<filter id="filter0_d_134_108" x="0" y="0" width="180" height="80" filterUnits="userSpaceOnUse" color-interpolation-filters="sRGB">
<feFlood flood-opacity="0" result="BackgroundImageFix"/>
<feColorMatrix in="SourceAlpha" type="matrix" values="0 0 0 0 0 0 0 0 0 0 0 0 0 0 0 0 0 0 127 0" result="hardAlpha"/>
<feOffset dy="4"/>
<feComposite in2="hardAlpha" operator="out"/>
<feColorMatrix type="matrix" values="0 0 0 0 0.0208333 0 0 0 0 0.0208333 0 0 0 0 0.0208333 0 0 0 0.8 0"/>
<feBlend mode="normal" in2="BackgroundImageFix" result="effect1_dropShadow_134_108"/>
<feBlend mode="normal" in="SourceGraphic" in2="effect1_dropShadow_134_108" result="shape"/>
</filter>
</defs>
</svg>
