<svg width="251" height="68" viewBox="0 0 251 68" fill="none" xmlns="http://www.w3.org/2000/svg">
<path d="M234.04 66.0428H250.55L228.096 0H208.849L186.395 66.0428H202.905L206.207 55.6646H230.738L234.04 66.0428ZM210.736 41.5126L218.472 17.2655L226.209 41.5126H210.736Z" fill="#75B82B"/>
<path d="M16.8753 67.175L5.06153 55.4911L16.5507 44.4563H14.2464L3.17912 55.0367V44.4563H1.45898V67.175H3.17912V55.9779L14.5709 67.175H16.8753ZM35.6353 67.175H37.4528L28.6576 44.4563H26.8401L18.0122 67.175H19.8297L22.0367 61.3979H33.4284L35.6353 67.175ZM22.6858 59.7752L27.7488 46.5658L32.8118 59.7752H22.6858ZM53.0997 44.4563H37.0668V46.079H44.2069V67.175H45.9595V46.079H53.0997V44.4563ZM58.391 65.5522V56.5296H68.7768V54.9069H58.391V46.079H69.5881V44.4563H56.6709V67.175H69.7504V65.5522H58.391ZM86.4068 44.4563H73.9764V67.175H75.6965V46.079H86.4068V44.4563ZM98.784 67.532C105.34 67.532 110.5 62.3067 110.5 55.8156C110.5 49.3245 105.34 44.0992 98.784 44.0992C92.228 44.0992 87.0676 49.3245 87.0676 55.8156C87.0676 62.3067 92.228 67.532 98.784 67.532ZM98.784 65.8768C93.1692 65.8768 88.7877 61.3979 88.7877 55.8156C88.7877 50.2333 93.1692 45.7545 98.784 45.7545C104.399 45.7545 108.78 50.2333 108.78 55.8156C108.78 61.3979 104.399 65.8768 98.784 65.8768ZM122.587 44.4563H114.863V67.175H116.583V58.5094H122.587C126.676 58.5094 129.662 55.4911 129.662 51.4991C129.662 47.4746 126.676 44.4563 122.587 44.4563ZM122.587 56.8866H116.583V46.079H122.587C125.703 46.079 127.942 48.3509 127.942 51.4991C127.942 54.6148 125.703 56.8866 122.587 56.8866ZM148.84 67.175H150.56V44.4563H149.035L135.631 63.9944V44.4563H133.911V67.175H135.404L148.84 47.6369V67.175ZM171.122 67.175H172.842V44.4563H171.316L157.912 63.9944V44.4563H156.192V67.175H157.685L171.122 47.6369V67.175Z" fill="#75B82B"/>
<path d="M21.7524 1.05668H0.550781V29.0588H6.95127V7.21716H15.3519V29.0588H21.7524V1.05668ZM37.1693 1.05668H26.5684V29.0588H32.9689V20.2582H37.1693C42.6897 20.2582 46.97 15.9778 46.97 10.6574C46.97 5.33701 42.6897 1.05668 37.1693 1.05668ZM37.1693 14.2577H32.9689V7.05715H37.1693C39.1294 7.05715 40.5695 8.61727 40.5695 10.6574C40.5695 12.6976 39.1294 14.2577 37.1693 14.2577ZM63.3298 29.6189C71.3704 29.6189 77.8909 23.2984 77.8909 15.0578C77.8909 6.81713 71.3704 0.496643 63.3298 0.496643C55.2892 0.496643 48.7687 6.81713 48.7687 15.0578C48.7687 23.2984 55.2892 29.6189 63.3298 29.6189ZM63.3298 23.3784C58.7694 23.3784 55.1692 20.0581 55.1692 15.0578C55.1692 10.0574 58.7694 6.73712 63.3298 6.73712C67.8901 6.73712 71.4904 10.0574 71.4904 15.0578C71.4904 20.0581 67.8901 23.3784 63.3298 23.3784ZM102.285 22.8984V1.05668H83.5238V13.6176C83.5238 18.378 82.6037 21.0582 81.3236 22.8984H78.4834V34.4192H84.8839V29.0588H98.885V34.4192H105.285V22.8984H102.285ZM88.1241 22.8984C89.1242 21.0982 89.9243 18.298 89.9243 13.6977V7.05715H95.8847V22.8984H88.1241ZM122.674 1.05668L117.754 13.2976L112.274 1.05668H105.873L114.834 20.2982C113.754 22.2583 112.154 23.3384 109.233 23.0584V29.0588C114.474 29.3389 118.514 26.8587 120.994 20.8182L129.075 1.05668H122.674ZM154.531 29.0588L144.69 14.6977L154.131 1.05668H146.85L138.29 13.2176V1.05668H131.889V29.0588H138.29V16.0978L147.25 29.0588H154.531ZM175.731 1.05668H154.93V7.21716H162.13V29.0588H168.531V7.21716H175.731V1.05668Z" fill="#75B82B"/>
</svg>
